<svg xmlns="http://www.w3.org/2000/svg" viewBox="0 0 595.28 164.53"><defs><style>.cls-1{fill:#ec008c;}</style></defs><title>veepee_rvb</title><g id="LOGO_VP" data-name="LOGO VP"><path d="M278.29,78c-12.94,0-24.57,1.65-24.57,21.57v43h9.48V118.87c4.53,2.09,10.14,2.27,15.09,2.27,13,0,24.58-1.65,24.58-21.58S291.24,78,278.29,78m0,35c-14.49,0-15.09-2.77-15.09-13.38,0-10.38.64-13.37,15.09-13.37s15.1,3,15.1,13.37-.65,13.38-15.1,13.38"/><polygon points="146.51 56.55 120.23 109.94 94.06 56.82 93.91 56.55 83.41 56.55 115.84 120.88 115.99 121.14 124.49 121.14 157.03 56.55 146.51 56.55"/><path d="M386.24,78c-7,0-23.25,0-23.25,21.57s16.3,21.58,23.25,21.58H407.8v-8.21H386.24c-11,0-13.25-2.77-13.73-10.55h37.42V99.56c0-21.57-16-21.57-23.69-21.57M373,94.18c.84-5.42,3.22-8,13.24-8,10.68,0,13.2,2.81,13.73,8Z"/><path d="M332.8,78c-7,0-23.26,0-23.26,21.57s16.3,21.58,23.26,21.58h21.56v-8.2H332.8c-11,0-13.25-2.77-13.73-10.55h37.42V99.56C356.49,78,340.49,78,332.8,78m-13.24,16.2c.84-5.42,3.23-8,13.24-8,10.68,0,13.2,2.81,13.72,8Z"/><path d="M223.39,78c-7,0-23.25,0-23.25,21.57s16.29,21.58,23.25,21.58H245v-8.2H223.39c-10.95,0-13.24-2.77-13.73-10.55h37.42V99.56c0-21.57-16-21.57-23.69-21.57m-13.24,16.2c.84-5.42,3.23-8,13.24-8,10.68,0,13.2,2.81,13.73,8Z"/><path d="M169.76,78c-7,0-23.26,0-23.26,21.57s16.3,21.58,23.26,21.58h21.56v-8.2H169.76c-11,0-13.24-2.77-13.73-10.55h37.42V99.56c0-21.57-16-21.57-23.69-21.57m-13.24,16.2c.85-5.42,3.23-8,13.24-8,10.68,0,13.2,2.81,13.73,8Z"/><path class="cls-1" d="M492.79,84.29a63.24,63.24,0,0,1-8.63,9.07c-.44.35-.72.33-.38,0,10.9-12,22.74-38.5,7.4-64.64a42.16,42.16,0,0,0-11.05,13c-4.91-7.61-12.06-14-21-19.68,0,0-22.51,25.24-12.56,61.8-28.72,4-18.29,26.29-13.74,29.5.21.15.39.07.1-.38-1.62-2.49-6.13-11.2,3.18-19.56,5-4.48,15.45-5.65,15.45-5.65-2.38-17.56-2.21-33.42,9.72-51,1.52,1,19,8.73,19.62,34.7,1.46,16.29-6.95,29.33-15.11,34.4-14.46,7.8-30.69,11.63-44.79,15-1.2.28-.73.41.07.38,33.51-1.42,63.3-16.58,74.76-31,2.21-2.78,3.19-5.84,1.71-7.54s-4.18,1-4.78,1.75M487.38,63a47.94,47.94,0,0,0-3.58-14.51c3.22-6.75,6.53-9.25,6.53-9.25s6.81,17.54.84,35.57C487.47,86,483,92.72,480.68,95.62c-.53.65-1,.85-.71.46,5.59-7.58,8.66-19.63,7.41-33"/></g></svg>